HIERARCHY
ROOT RootJoint
{
    OFFSET   0.000000   0.000000   0.000000
    CHANNELS 6 Xposition Yposition Zposition Xrotation Yrotation Zrotation
    JOINT pelvis_lowerback
    {
        OFFSET   0.000000   0.093605   0.000000
        CHANNELS 3 Xrotation Yrotation Zrotation
        JOINT lowerback_torso
        {
            OFFSET   0.000000   0.100000   0.000000
            CHANNELS 3 Xrotation Yrotation Zrotation
            JOINT torso_head
            {
                OFFSET   0.000000   0.282350   0.000000
                CHANNELS 3 Xrotation Yrotation Zrotation
                End Site
                {
                    OFFSET   0.000000   0.192650   0.000000
                }
            }
            JOINT rTorso_Clavicle
            {
                OFFSET  -0.001000   0.157500   0.000000
                CHANNELS 3 Xrotation Yrotation Zrotation
                JOINT rShoulder
                {
                    OFFSET  -0.117647   0.000000   0.000000
                    CHANNELS 3 Xrotation Yrotation Zrotation
                    JOINT rElbow
                    {
                        OFFSET  -0.245000   0.000000   0.000000
                        CHANNELS 3 Xrotation Yrotation Zrotation
                        JOINT rWrist
                        {
                            OFFSET  -0.240000   0.000000   0.000000
                            CHANNELS 3 Xrotation Yrotation Zrotation
                            End Site
                            {
                                OFFSET  -0.116353  -0.002500   0.000000
                            }
                        }
                    }
                }
            }
            JOINT lTorso_Clavicle
            {
                OFFSET   0.001000   0.157500   0.000000
                CHANNELS 3 Xrotation Yrotation Zrotation
                JOINT lShoulder
                {
                    OFFSET   0.117647   0.000000   0.000000
                    CHANNELS 3 Xrotation Yrotation Zrotation
                    JOINT lElbow
                    {
                        OFFSET   0.245000   0.000000   0.000000
                        CHANNELS 3 Xrotation Yrotation Zrotation
                        JOINT lWrist
                        {
                            OFFSET   0.240000   0.000000   0.000000
                            CHANNELS 3 Xrotation Yrotation Zrotation
                            End Site
                            {
                                OFFSET   0.116353  -0.002500   0.000000
                            }
                        }
                    }
                }
            }
        }
    }
    JOINT rHip
    {
        OFFSET  -0.100000  -0.051395   0.000000
        CHANNELS 3 Xrotation Yrotation Zrotation
        JOINT rKnee
        {
            OFFSET   0.000000  -0.410000   0.000000
            CHANNELS 3 Xrotation Yrotation Zrotation
            JOINT rAnkle
            {
                OFFSET   0.000000  -0.390000   0.000000
                CHANNELS 3 Xrotation Yrotation Zrotation
                JOINT rToeJoint
                {
                    OFFSET   0.000000  -0.050000   0.130000
                    CHANNELS 3 Xrotation Yrotation Zrotation
                    End Site
                    {
                        OFFSET  -0.010000   0.002000   0.060000
                    }
                }
            }
        }
    }
    JOINT lHip
    {
        OFFSET   0.100000  -0.051395   0.000000
        CHANNELS 3 Xrotation Yrotation Zrotation
        JOINT lKnee
        {
            OFFSET   0.000000  -0.410000   0.000000
            CHANNELS 3 Xrotation Yrotation Zrotation
            JOINT lAnkle
            {
                OFFSET   0.000000  -0.390000   0.000000
                CHANNELS 3 Xrotation Yrotation Zrotation
                JOINT lToeJoint
                {
                    OFFSET   0.000000  -0.050000   0.130000
                    CHANNELS 3 Xrotation Yrotation Zrotation
                    End Site
                    {
                        OFFSET   0.010000   0.002000   0.060000
                    }
                }
            }
        }
    }
}
MOTION
Frames: 5
Frame Time:   0.008333
 -2.347362   1.011208   4.032299   7.206786  -6.056971 -12.930977  -1.368867   1.049379  14.160174  -3.881666  -1.423377   2.701965  -6.436521  -1.440610  -2.598628   5.617901  -3.308256  -7.015009   6.446307   5.703951  48.779655   0.002044  24.464139  -0.001391   4.380795   0.620632  -5.607895   8.571464   7.716795   2.244997  13.470889  -7.207231 -49.708600  -0.004641 -22.784241  -0.003883   1.875639  -7.577821   3.658187 -20.266739  -4.629077   8.890535  40.722206   0.009240   0.013449   1.501099  -7.349729   7.554727   1.790757  -0.010609  -0.009523 -24.393308   1.559575  17.483190  29.818077   0.019154   0.000337  37.335597   4.638503  -3.577424 -33.541665   0.022131  -0.010770
 -2.345840   1.023867   4.034668   7.280195  -6.293030 -12.075540  -2.307879   1.228723  13.187732  -3.648965  -1.512210   3.082361  -6.198830  -1.181917  -2.544279   5.891513  -3.440351  -6.516227   6.763776   5.726572  48.262630   0.001168  24.249808  -0.001105   4.445701   0.495219  -6.079865   8.980619   7.586049   1.888941  13.956432  -7.001871 -49.210768  -0.003073 -22.554317  -0.003174   1.842849  -7.251659   4.036949 -19.596524  -4.424458   7.809789  39.347998   0.006341   0.017954   3.332797  -7.187924   8.013500   2.276550  -0.009762  -0.010015 -23.535029   1.990583  16.361202  28.635409   0.013605   0.006151  34.700134   4.776175  -3.994062 -28.397811   0.048371  -0.022128
 -2.344373   1.035938   4.036195   7.332597  -6.468873 -10.919865  -3.024509   1.435639  11.937386  -3.342754  -1.636112   3.198036  -5.961487  -0.917828  -2.544188   6.148631  -3.499620  -5.775339   7.036696   5.804329  47.968761   0.000014  24.059612  -0.000554   4.516535   0.436383  -6.317146   9.279169   7.308016   1.433422  14.316977  -6.891849 -48.785333  -0.002694 -22.352151  -0.003204   1.809452  -6.831518   4.418521 -19.056889  -4.142590   6.353573  37.745012   0.002338   0.022337   5.047082  -7.030412   8.433207   2.825989  -0.008994  -0.010377 -22.828090   2.433286  15.004997  27.908351   0.010018   0.008086  32.204609   4.914187  -4.381628 -24.020870   0.060809  -0.031264
 -2.343135   1.047386   4.037168   7.377576  -6.630968  -9.749839  -3.590173   1.636055  10.668476  -2.996981  -1.780760   3.201136  -5.719972  -0.669406  -2.574040   6.392108  -3.519342  -4.960018   7.280609   5.910195  47.794468  -0.000967  23.892483  -0.000043   4.593594   0.446972  -6.323097   9.512061   6.976363   0.901011  14.599980  -6.849257 -48.467455  -0.002799 -22.189662  -0.003414   1.784840  -6.523902   4.656142 -18.648266  -3.873553   4.865734  36.123433  -0.001461   0.025362   6.640948  -6.874364   8.819734   3.328659  -0.008215  -0.010193 -22.180376   2.838810  13.750158  27.309084   0.007810   0.008654  29.880866   5.056873  -4.741757 -20.027410   0.063781  -0.036917
 -2.342135   1.058175   4.037768   7.420262  -6.781337  -8.621615  -4.046453   1.815542   9.425610  -2.634353  -1.944344   3.143571  -5.480621  -0.438144  -2.614622   6.624624  -3.523491  -4.130878   7.506567   6.023802  47.686319  -0.001691  23.740594   0.000345   4.672606   0.493830  -6.191359   9.699660   6.621723   0.319483  14.830200  -6.851635 -48.234695  -0.003018 -22.056840  -0.003601   1.769764  -6.328221   4.754711 -18.351766  -3.631299   3.417784  34.554803  -0.004669   0.026951   8.124057  -6.719759   9.176639   3.781324  -0.007438  -0.009646 -21.563967   3.200254  12.643951  26.767325   0.006523   0.008551  27.713879   5.204045  -5.074590 -16.371243   0.060685  -0.039183
